<svg width="80" height="80" viewBox="0 0 80 80" fill="none" xmlns="http://www.w3.org/2000/svg">
<path d="M76.5379 37.8167L42.9736 4.25232L39.7212 1L14.4548 26.2664L2.90107 37.8167C2.32396 38.3968 2 39.1817 2 40C2 40.8183 2.32396 41.6032 2.90107 42.1833L25.9842 65.2664L39.7212 79L64.9842 53.7336L65.3777 53.3436L76.5379 42.2007C76.8272 41.9136 77.0567 41.5721 77.2133 41.1959C77.37 40.8197 77.4506 40.4162 77.4506 40.0087C77.4506 39.6012 77.37 39.1977 77.2133 38.8215C77.0567 38.4453 76.8272 38.1038 76.5379 37.8167V37.8167ZM39.7212 51.5329L28.1884 40L39.7212 28.4671L51.2506 40L39.7212 51.5329Z" fill="#2684FF"/>
<path d="M39.721 28.4679C36.0939 24.8416 34.0493 19.9274 34.0336 14.7985C34.0179 9.66968 36.0326 4.74305 39.6374 1.09473L14.4023 26.3194L28.1359 40.0529L39.721 28.4679Z" fill="url(#paint0_linear)"/>
<path d="M51.2814 39.9688L39.7207 51.5329C43.3615 55.1747 45.4068 60.1135 45.4068 65.263C45.4068 70.4126 43.3615 75.3513 39.7207 78.9931L65.0254 53.7023L51.2814 39.9688Z" fill="url(#paint1_linear)"/>
<path d="M0 0H80V80H0V0Z" fill="white" fill-opacity="0.22"/>
<defs>
<linearGradient id="paint0_linear" x1="37.6561" y1="16.7992" x2="21.5512" y2="32.9006" gradientUnits="userSpaceOnUse">
<stop offset="0.18" stop-color="#0052CC"/>
<stop offset="1" stop-color="#2684FF"/>
</linearGradient>
<linearGradient id="paint1_linear" x1="2940.91" y1="3387.09" x2="4585.39" y2="4453.19" gradientUnits="userSpaceOnUse">
<stop offset="0.18" stop-color="#0052CC"/>
<stop offset="1" stop-color="#2684FF"/>
</linearGradient>
</defs>
</svg>
