<svg width="80" height="80" viewBox="0 0 80 80" fill="none" xmlns="http://www.w3.org/2000/svg">
<path d="M0 0H80V80H0V0Z" fill="white" fill-opacity="0.22"/>
<path d="M24.5436 3.02813C27.7773 2.99563 31.0111 3.01187 34.2448 3.01187C34.2448 4.01937 34.2611 5.04313 34.2286 6.05062C31.9861 6.03437 29.7436 6.05063 27.5011 6.06688C27.4848 7.52937 27.4523 9.00812 27.4686 10.4706C29.7111 10.4869 31.9698 10.5031 34.2123 10.5031C34.2448 11.3319 34.2286 12.1769 34.2123 13.0056C30.9786 12.9894 27.7611 12.9894 24.5273 12.9894C24.5598 9.67437 24.5598 6.34313 24.5436 3.02813Z" fill="black"/>
<path d="M35.3991 3.01061C38.6816 3.01061 41.9478 2.97811 45.2303 3.02686C45.2141 3.98561 45.2303 4.94436 45.2303 5.90311C42.8416 5.90311 40.4691 5.90311 38.0803 5.93561C38.0803 6.30936 38.0803 6.68311 38.0803 7.05686C40.4528 7.08936 42.8416 7.10561 45.2141 7.12186C45.2303 9.07186 45.2141 11.0381 45.2303 12.9881C41.9478 12.9881 38.6816 12.9881 35.3991 13.0044C35.3828 12.2081 35.3828 11.4281 35.3991 10.6319C37.6741 10.6319 39.9491 10.6481 42.2078 10.6156C42.2241 10.1119 42.2241 9.59186 42.2241 9.08811C39.9491 9.08811 37.6578 9.08811 35.3828 9.08811C35.3828 7.05686 35.3828 5.04186 35.3991 3.01061Z" fill="black"/>
<path d="M46.3182 3.02637C49.5845 3.02637 52.8507 3.02637 56.1332 3.02637C56.1495 3.98512 56.1657 4.94387 56.1332 5.90262C53.7445 5.90262 51.3395 5.91887 48.9507 5.91887C48.9507 6.30887 48.967 6.69887 48.9832 7.10512C51.3557 7.08887 53.7445 7.12137 56.117 7.15387C56.1332 9.10387 56.1495 11.0539 56.1332 13.0039C52.8507 12.9876 49.5845 12.9876 46.302 13.0039C46.2857 12.2076 46.2695 11.4276 46.302 10.6314C48.5607 10.6476 50.8357 10.6476 53.1107 10.6314C53.1107 10.1276 53.127 9.60762 53.127 9.10387C50.852 9.12012 48.577 9.12012 46.302 9.10387C46.302 7.08887 46.3182 5.05762 46.3182 3.02637Z" fill="black"/>
<path d="M14.0162 17.1152C31.5662 17.1152 49.1162 17.1152 66.6662 17.1152C65.7075 28.0352 64.7487 38.939 63.7412 49.859C63.14 56.8302 62.5225 63.8015 61.8725 70.7727C58.135 71.764 54.4138 72.9015 50.6763 73.8927C47.2313 74.9002 43.77 75.8102 40.325 76.8177H40.2275C36.9613 75.8427 33.6463 74.9815 30.38 74.0065C26.5125 72.9665 22.6937 71.7965 18.8262 70.7727C18.3225 65.5565 17.8675 60.324 17.4125 55.0915C16.5675 45.439 15.6412 35.7865 14.8287 26.1177C14.5525 23.209 14.3413 20.3002 14 17.3915V17.1152H14.0162ZM40.4225 21.4215C40.39 23.5177 40.455 25.614 40.39 27.7102C34.3613 27.694 28.3488 27.7102 22.32 27.7102C22.4175 29.7415 22.6937 31.7727 22.97 33.7877C28.5763 33.999 34.1825 33.7877 39.7888 33.9502C34.8813 36.144 29.925 38.224 25.0013 40.369C24.5788 40.564 24.1238 40.694 23.75 40.9702C23.7988 43.2127 24.1563 45.4227 24.3188 47.6652C27.3088 47.649 30.2825 47.6002 33.2725 47.6002C35.6613 47.584 38.0663 47.6327 40.455 47.584C40.3413 51.2565 40.4875 54.9452 40.3738 58.6177C38.765 58.374 37.1725 58.0165 35.5638 57.7402C34.2963 57.464 32.9963 57.3177 31.7613 56.9602C31.5825 55.189 31.4688 53.434 31.3063 51.6627C30.9488 51.549 30.5588 51.5652 30.185 51.549C28.3813 51.5652 26.5613 51.549 24.7575 51.5652C24.9363 54.9615 25.245 58.3415 25.765 61.7052C27.5525 62.1765 29.34 62.6315 31.1113 63.119C33.8413 63.8665 36.6038 64.484 39.3338 65.2152C39.6588 65.2802 39.9838 65.4102 40.325 65.3777C40.5038 67.604 40.3738 69.8627 40.4063 72.089C41.04 71.9915 41.6575 71.829 42.2588 71.6502C47.4263 70.2527 52.5938 68.8065 57.7775 67.3927C58.0375 65.3615 58.1513 63.314 58.3625 61.2665C58.8988 55.0752 59.435 48.8677 60.0037 42.6765C60.67 35.5915 61.2388 28.4902 61.905 21.4052C54.7388 21.4215 47.5725 21.4052 40.4225 21.4215Z" fill="#0170BA"/>
<path d="M40.4217 21.4225C47.5717 21.4062 54.7379 21.4225 61.9042 21.4062C61.2379 28.4912 60.6692 35.5925 60.0029 42.6775C59.4342 48.8687 58.8979 55.0762 58.3617 61.2675C58.1504 63.2987 58.0367 65.3462 57.7767 67.3937C52.6092 68.8075 47.4417 70.2375 42.258 71.6513C41.6567 71.8463 41.023 71.9925 40.4055 72.09C40.373 69.8475 40.5192 67.605 40.3242 65.3787C40.373 65.3625 40.4705 65.3462 40.503 65.3462C45.313 64.1437 50.0904 62.8112 54.9004 61.56C55.5017 54.7512 56.1842 47.9425 56.6067 41.1175C52.5279 41.1337 48.4329 41.1337 44.3542 41.15C43.753 41.15 43.168 41.15 42.5667 41.1012C44.7605 39.9637 47.0679 39.07 49.3267 38.0625C51.4879 37.0875 53.6817 36.1612 55.8592 35.2025C56.2817 35.0075 56.7204 34.845 57.0942 34.5687C57.2404 34.0325 57.2242 33.48 57.2892 32.9437C57.4192 31.2212 57.6304 29.4987 57.7117 27.7762C51.9267 27.7275 46.1417 27.7762 40.3567 27.7437C40.4542 25.6312 40.3892 23.5187 40.4217 21.4225Z" fill="#29A9DF"/>
<path d="M40.4537 47.5841C43.2487 47.5354 46.0437 47.6166 48.8387 47.6004C48.6762 50.4604 48.4487 53.3042 48.3024 56.1642C46.5962 56.7167 44.8574 57.2042 43.1349 57.708C42.2087 57.9842 41.2662 58.2117 40.3887 58.618C40.4862 54.9455 40.3399 51.2729 40.4537 47.5841Z" fill="#29A9DF"/>
<path d="M22.3184 27.7279C28.3471 27.7279 34.3596 27.7117 40.3884 27.7279C40.4696 34.3579 40.3721 40.9717 40.4534 47.6017C38.0646 47.6504 35.6596 47.6017 33.2709 47.6179C30.2809 47.6179 27.3071 47.6667 24.3171 47.6829C24.1546 45.4567 23.7971 43.2304 23.7484 40.9879C24.1221 40.7117 24.5771 40.5654 24.9996 40.3867C29.9234 38.2417 34.8796 36.1617 39.7871 33.9679C34.1809 33.8054 28.5746 34.0167 22.9684 33.8054C22.6921 31.7742 22.4159 29.7592 22.3184 27.7279Z" fill="#CFCFCF"/>
<path d="M24.7559 51.5672C26.5596 51.5347 28.3796 51.5509 30.1834 51.5509C30.5571 51.5509 30.9309 51.5509 31.3046 51.6647C31.4671 53.4359 31.5809 55.2072 31.7596 56.9622C33.0109 57.3197 34.2946 57.4659 35.5621 57.7422C37.1709 58.0347 38.7634 58.3922 40.3721 58.6197C40.5184 60.8622 40.2584 63.1047 40.5184 65.3309C40.4696 65.3472 40.3721 65.3634 40.3396 65.3634C39.9984 65.3959 39.6734 65.2659 39.3484 65.2009C36.6184 64.4697 33.8559 63.8522 31.1259 63.1047C29.3384 62.6172 27.5509 62.1622 25.7796 61.6909C25.2434 58.3597 24.9346 54.9634 24.7559 51.5672Z" fill="#CFCFCF"/>
<path d="M40.3887 27.7266C46.1737 27.7591 51.9586 27.7103 57.7436 27.7591C57.6624 29.4816 57.4349 31.2041 57.3211 32.9266C57.2561 33.4628 57.2724 34.0316 57.1261 34.5516C56.7524 34.8441 56.3136 34.9903 55.8911 35.1853C53.7136 36.1441 51.5361 37.0703 49.3586 38.0453C47.0999 39.0528 44.7924 39.9466 42.5987 41.0841C43.1837 41.1329 43.7849 41.1329 44.3862 41.1329C48.4649 41.1166 52.5599 41.1329 56.6386 41.1004C56.2161 47.9254 55.5336 54.7342 54.9324 61.5429C50.1386 62.7942 45.3449 64.1267 40.5349 65.3292C40.2749 63.1029 40.5512 60.8442 40.3887 58.6179C41.2662 58.2117 42.2087 57.9842 43.1349 57.7079C44.8574 57.1879 46.5961 56.7167 48.3024 56.1642C48.4486 53.3041 48.6924 50.4604 48.8386 47.6004C46.0437 47.6166 43.2487 47.5354 40.4537 47.5841C40.3562 40.9704 40.4537 34.3403 40.3887 27.7266Z" fill="white"/>
</svg>
