<svg width="80" height="80" viewBox="0 0 80 80" fill="none" xmlns="http://www.w3.org/2000/svg">
<path d="M17.029 72.7355L12 16.3291H67.2604L62.226 72.7267L39.5964 79.0004L17.029 72.7355Z" fill="#E44D26"/>
<path d="M39.6309 74.2053L57.9167 69.1357L62.2189 20.9414H39.6309V74.2053Z" fill="#F16529"/>
<path d="M39.6303 41.8616H30.476L29.8437 34.7775H39.6303V27.8594H39.6064H22.2832L22.4488 29.7154L24.1491 48.7796H39.6303V41.8616Z" fill="#EBEBEB"/>
<path d="M39.6311 59.8281L39.6008 59.8361L31.8961 57.7557L31.4036 52.2383H27.6597H24.459L25.4282 63.1006L39.5992 67.0345L39.6311 67.0257V59.8281Z" fill="#EBEBEB"/>
<path d="M17.1426 1H20.6582V4.47344H23.8742V1H27.39V11.5184H23.8744V7.99625H20.6584V11.5184H17.1427V1H17.1426Z" fill="black"/>
<path d="M32.013 4.48807H28.918V1H38.6253V4.48807H35.5289V11.5184H32.0131V4.48807H32.013Z" fill="black"/>
<path d="M40.166 1H43.8319L46.0869 4.69587L48.3396 1H52.0068V11.5184H48.5056V6.30492L46.0869 10.0448H46.0264L43.6059 6.30492V11.5184H40.166V1V1Z" fill="black"/>
<path d="M53.7559 1H57.2726V8.04164H62.2166V11.5184H53.7559V1Z" fill="black"/>
<path d="M39.6055 41.8613V48.7793H48.1242L47.3212 57.7514L39.6055 59.834V67.0313L53.7878 63.1007L53.8918 61.9319L55.5175 43.719L55.6863 41.8613H53.8221H39.6055Z" fill="white"/>
<path d="M39.6055 27.8594V32.1561V34.7606V34.7775H56.2935H56.3158L56.4546 33.2225L56.7698 29.7154L56.9352 27.8594H39.6055Z" fill="white"/>
<path d="M0 0H80V80H0V0Z" fill="white" fill-opacity="0.22"/>
</svg>
