<svg width="80" height="80" viewBox="0 0 80 80" fill="none" xmlns="http://www.w3.org/2000/svg">
<path d="M68.1461 45.7898C65.419 45.8103 63.0574 46.6841 61.0768 47.9852C60.3455 46.0542 59.6141 44.367 59.4924 43.107C59.3553 41.6435 59.1877 40.749 59.3553 39.0012C59.5227 37.253 60.2845 34.7732 60.2845 34.57C60.2691 34.387 60.1168 33.4927 58.5476 33.4724C56.9785 33.452 55.6224 33.8789 55.47 34.4277C55.3177 34.9765 55.013 36.2367 54.8149 37.5375C54.5407 39.4481 51.6763 46.2166 50.0461 49.7736C49.5129 48.3915 49.0558 47.1719 48.9642 46.1961C48.8273 44.7329 48.6595 43.8383 48.8273 42.0905C48.9949 40.3423 49.7566 37.8627 49.7566 37.6595C49.7414 37.4765 49.5891 36.5822 48.0199 36.5619C46.4505 36.5416 45.0947 36.9684 44.9423 37.5172C44.79 38.066 44.6224 39.3668 44.2872 40.627C43.9671 41.8872 40.1581 53.1884 39.1678 56.1356C38.665 57.6397 38.2234 58.839 37.9033 59.652C37.5833 60.465 37.888 59.713 37.8576 59.7943C37.5833 60.4853 37.431 60.8715 37.431 60.8715V60.8921C37.2177 61.4002 36.9891 61.8878 36.8823 61.8878C36.8061 61.8878 36.6538 60.526 36.9128 58.6562C37.4765 54.7331 38.8477 48.6153 38.8326 48.3917C38.8326 48.2901 39.0915 47.2126 37.9488 46.664C36.8366 46.1152 36.4406 47.0299 36.3491 47.0299C36.2577 47.0299 36.1815 47.3551 36.1815 47.3551C36.1815 47.3551 37.4156 40.4648 33.8199 40.4648C31.5651 40.4648 28.457 43.7373 26.9182 46.7252C25.9431 47.4366 23.871 48.9405 21.6771 50.5464C20.8391 51.1562 19.9707 51.8066 19.148 52.3961L18.9805 52.1518C14.6231 45.9524 6.56342 41.562 6.8986 33.2285C7.02049 30.1999 7.81275 22.2119 22.3782 12.5368C34.3078 4.60974 43.8606 6.7846 45.5211 11.6221C47.8827 18.5329 40.4172 31.3788 28.0154 33.2285C23.2924 33.9399 20.8088 31.5008 20.1843 30.5861C19.5292 29.6308 19.4377 29.5901 19.194 29.7731C18.7978 30.0576 19.0416 30.9113 19.194 31.4195C19.5596 32.7 21.0832 34.9765 23.6733 36.1147C25.9432 37.1107 31.4892 37.6595 38.1929 34.2041C45.7041 30.3219 51.5698 19.5492 49.8482 10.5449C48.0961 1.37794 36.6998 -1.63028 25.9282 3.47149C19.5138 6.52036 12.5663 11.2766 7.56898 17.5166C1.62705 24.9152 0.682437 31.3788 1.07857 34.0618C2.46517 43.6353 12.353 49.8753 16.3143 54.4892C16.1162 54.6313 15.9334 54.7736 15.7658 54.8958C13.7851 56.1964 6.24347 61.461 4.35424 67.03C2.22124 73.331 4.68943 77.8639 6.33488 78.4737C11.4236 80.364 16.6342 76.9696 19.4528 71.38C22.256 65.7904 21.921 58.5341 20.626 55.221L20.5801 55.099L22.1342 53.8795C23.1399 53.0868 24.1302 52.355 24.9985 51.7247C24.5111 53.4931 24.1605 55.5866 23.9778 58.6355C23.7645 62.213 24.8615 66.8471 26.3089 68.6764C26.9488 69.4689 27.7106 69.4895 28.1829 69.4895C29.8588 69.4895 30.6206 67.6396 31.4586 65.4243C32.4946 62.721 33.4087 59.5908 33.4087 59.5908C33.4087 59.5908 32.2661 68.0667 35.3894 68.0667C36.5321 68.0667 37.6747 66.0951 38.1927 65.0788V65.0991C38.1927 65.0991 38.2232 65.0381 38.2842 64.8958C38.3481 64.7697 38.4091 64.641 38.467 64.5099V64.4692C38.9241 63.4123 39.9448 60.9935 41.4684 56.9893C43.4337 51.8266 45.3231 45.363 45.3231 45.363C45.3231 45.363 45.5059 46.9484 46.0696 49.5501C46.4046 51.095 47.1359 52.7819 47.6997 54.4283C47.2426 55.2819 46.9684 55.77 46.9684 55.77L46.9836 55.7903C46.6181 56.4407 46.2066 57.132 45.7801 57.8229C44.2261 60.3026 42.3673 63.1281 42.1236 63.9411C41.8341 64.8962 41.895 65.6076 42.4587 66.177C42.8701 66.5835 43.6014 66.6646 44.3784 66.5835C45.7801 66.4613 46.7552 65.994 47.2428 65.7093C48.0045 65.3434 48.873 64.7946 49.7109 63.9816C51.2345 62.4777 52.1639 60.3435 52.0725 57.4979C52.0268 55.9328 51.6459 54.388 51.1736 52.9246C51.3107 52.6603 51.448 52.3959 51.5849 52.1115C53.9922 47.4161 55.8509 42.2535 55.8509 42.2535C55.8509 42.2535 56.0338 43.8389 56.5975 46.4406C56.8868 47.7618 57.4659 49.2051 57.9839 50.6279C55.729 53.0874 54.3121 55.933 53.8246 57.803C52.9257 61.2583 53.6265 62.8234 54.952 63.1893C55.5461 63.3519 56.3994 62.986 57.0392 62.6202C57.8314 62.2746 58.7913 61.685 59.6751 60.8112C61.1987 59.3071 62.6613 57.2135 62.5851 54.3882C62.5394 53.0874 62.2804 51.8068 61.93 50.5873C63.8497 49.5303 66.3329 48.9206 69.4869 49.4287C76.2668 50.4857 77.6075 56.1362 77.3487 58.494C77.0897 60.852 75.6727 62.1527 75.2003 62.5592C74.728 62.9454 74.5756 63.0879 74.6213 63.3722C74.6823 63.7993 74.8956 63.7787 75.3069 63.6976C75.8706 63.5755 78.8721 61.7667 78.994 57.4172C79.1768 51.8268 75.2003 45.729 68.1461 45.7898V45.7898ZM15.8572 69.3067C13.6176 72.5792 10.4638 73.8191 9.12302 72.7621C7.67563 71.6442 8.23919 66.827 10.997 63.3513C12.6729 61.2374 14.8516 59.2861 16.2838 58.0869C16.6037 57.8227 17.0913 57.4367 17.6702 56.969C17.7617 56.8879 17.8226 56.847 17.8226 56.847C17.9293 56.7657 18.0511 56.6641 18.173 56.5625C19.1938 61.522 18.2187 65.8717 15.8572 69.3067V69.3067ZM32.2356 54.4486C31.4586 56.9893 29.8131 63.5139 28.8228 63.148C27.9694 62.8431 27.4516 57.904 28.655 53.0258C29.2645 50.5662 30.5595 47.6394 31.3213 46.501C32.5555 44.6717 33.8961 44.0619 34.2315 44.814C34.6276 45.7898 32.7231 52.8632 32.2356 54.4486ZM45.7497 63.0667C45.4145 63.2905 45.1098 63.4529 44.9726 63.3312C44.866 63.2499 45.1096 62.945 45.1096 62.945C45.1096 62.945 46.8008 60.5262 47.4711 59.4083C47.852 58.7581 48.3091 58.006 48.7966 57.1521V57.396C48.7968 60.3227 46.6943 62.274 45.7497 63.0667ZM56.1707 59.8959C55.927 59.652 55.9576 58.8999 56.7802 56.5421C57.1003 55.6072 57.8314 54.0421 59.096 52.5583C59.2483 53.1681 59.3399 53.7573 59.3245 54.3063C59.3094 57.9649 57.3593 59.3268 56.1707 59.8959Z" fill="#CF649A"/>
<path d="M0 0H80V80H0V0Z" fill="white" fill-opacity="0.22"/>
</svg>
