<svg width="80" height="80" viewBox="0 0 80 80" fill="none" xmlns="http://www.w3.org/2000/svg">
<path d="M1 1H79V79H1V1Z" fill="#F7DF1E"/>
<path d="M21.5101 66.1827L27.4789 62.5703C28.6306 64.612 29.6781 66.3396 32.1909 66.3396C34.5994 66.3396 36.1183 65.3975 36.1183 61.7327V36.8099H43.4482V61.8363C43.4482 69.4282 38.9979 72.884 32.505 72.884C26.6413 72.884 23.2376 69.8471 21.5098 66.1821L21.5101 66.1827ZM47.4295 65.3972L53.3977 61.9417C54.969 64.5075 57.011 66.3923 60.6234 66.3923C63.6608 66.3923 65.5974 64.8737 65.5974 62.7793C65.5974 60.2662 63.6078 59.3759 60.2569 57.9104L58.4248 57.1243C53.1363 54.8736 49.6285 52.0461 49.6285 46.0773C49.6285 40.5795 53.817 36.3906 60.362 36.3906C65.0219 36.3906 68.3728 38.014 70.7811 42.2549L65.0737 45.9203C63.8168 43.669 62.4561 42.779 60.3617 42.779C58.2149 42.779 56.8535 44.1403 56.8535 45.9203C56.8535 48.1193 58.2149 49.0099 61.3562 50.3712L63.1886 51.1564C69.4194 53.827 72.9273 56.5494 72.9273 62.6748C72.9273 69.2725 67.744 72.8849 60.7803 72.8849C53.9739 72.8849 49.5757 69.6387 47.4292 65.3975" fill="black"/>
<path d="M0 0H80V80H0V0Z" fill="white" fill-opacity="0.22"/>
</svg>
