<svg width="80" height="80" viewBox="0 0 80 80" fill="none" xmlns="http://www.w3.org/2000/svg">
<path d="M4.49472 50.4647C2.8954 45.4116 2.43406 40.0777 3.35674 34.5879C3.75657 32.3109 4.3717 30.1274 5.04833 27.9128C5.04833 27.9128 9.29268 13.7828 23.6558 7.32602C23.6558 7.32602 28.6075 4.6747 36.0505 4.48754C36.0505 4.48754 35.0355 3.4894 34.3897 3.05271C30.8835 0.682107 25.6549 -0.097695 22.487 3.23986C21.5336 4.23801 20.734 5.32973 19.842 6.32788C18.8271 7.45079 17.5968 8.38655 16.182 8.91682C14.9518 9.3847 13.7216 9.29113 12.4606 9.50947C11.1688 9.72781 9.84628 10.1957 8.80058 11.0379C7.6626 11.9736 7.20126 13.2213 7.07823 14.6562C6.95521 15.7791 6.98597 16.9332 6.92445 18.0561C6.77067 21.3625 5.72497 22.2982 3.3875 24.1386C2.4033 24.8872 1.57289 25.8853 0.957767 26.9459C-0.8876 30.2522 2.06499 33.6833 2.21877 37.0209C2.24952 37.7071 2.18801 38.3933 1.94196 39.0484C1.69591 39.7658 1.20382 40.2337 0.803986 40.8263C0.250376 41.6061 -0.118697 42.5419 0.0350832 43.5089C0.188864 44.4758 0.680962 45.3804 1.1423 46.2226C2.03423 47.7198 3.14145 49.061 4.31018 50.3399C4.3717 50.3399 4.43321 50.4023 4.49472 50.4647" fill="#E32286"/>
<path d="M63.178 62.4427C70.2519 59.3235 73.266 53.9273 73.266 53.9273C79.8786 44.788 77.6334 35.1497 77.6334 35.1497C73.4198 44.4449 69.5752 47.0027 69.5752 47.0027C79.9401 31.0011 69.6368 21.3316 69.6368 21.3316C73.8504 30.4397 68.2527 41.544 68.2527 41.544C63.547 51.5879 56.873 55.175 56.873 55.175C64.316 56.5786 69.7905 51.4943 69.7905 51.4943C59.1182 63.1914 47.5539 62.6299 47.5539 62.6299C52.4133 68.1509 59.7025 67.683 59.7025 67.683C50.1681 69.96 41.2181 66.7473 33.8674 60.54C32.4834 59.3859 31.1609 58.1382 29.9306 56.797C29.9306 56.797 28.8234 55.6117 28.6081 55.2998L28.5773 55.2686C28.4236 61.0391 34.3595 66.4041 34.3595 66.4041C26.9165 63.2849 23.5026 56.5162 23.5026 56.5162C23.5026 56.5162 18.4893 47.8448 22.1186 37.957C25.7478 28.0691 36.7277 25.948 36.7277 25.948C45.8008 30.4085 53.4898 31.8121 53.4898 31.8121C69.6983 34.557 68.7756 26.5095 68.7756 26.5095C68.9294 19.5848 58.6261 12.2235 58.6261 12.2235C40.2647 -1.59462 23.6564 7.32632 23.6564 7.32632C9.29325 13.7831 5.0489 27.9131 5.0489 27.9131C4.37227 30.1277 3.75714 32.3112 3.35731 34.5882C1.78875 43.8523 4.15697 52.6172 9.29325 60.4153C17.2898 72.5178 30.2689 76.6975 30.2689 76.6975C49.4915 83.3103 62.6244 73.5783 62.6244 73.5783C74.7115 65.1565 77.1413 55.4245 77.1413 55.4245C67.3916 63.1602 63.178 62.4427 63.178 62.4427ZM48.169 16.9335C49.0917 16.9335 49.8298 17.6821 49.8298 18.6179C49.8298 19.5536 49.0917 20.3022 48.169 20.3022C47.2463 20.3022 46.5082 19.5536 46.5082 18.6179C46.5082 17.6821 47.2463 16.9335 48.169 16.9335Z" fill="url(#paint0_linear)"/>
<path d="M68.7439 26.478C68.8977 19.5534 58.5944 12.192 58.5944 12.192C40.233 -1.59489 23.6247 7.32605 23.6247 7.32605C9.26154 13.7828 5.0172 27.9128 5.0172 27.9128C4.18678 30.3146 3.44864 33.9953 3.44864 33.9953C2.55671 38.6117 2.95654 42.885 2.95654 42.885C3.32561 46.9712 4.21754 49.7161 4.21754 49.7161C5.14022 52.6482 5.57081 53.5527 5.57081 53.5527C5.54005 53.4592 5.38627 52.7729 5.38627 52.7729C5.38627 52.7729 4.09451 46.4721 5.294 40.4209C5.294 40.4209 6.33971 34.1201 10.5841 29.2541C10.5841 29.2541 17.4734 19.3038 30.2987 23.2028C30.2987 23.2028 33.0668 24.201 34.0202 24.7C34.9737 25.1679 36.6345 25.8853 36.6345 25.8853C45.7076 30.3458 53.3966 31.7495 53.3966 31.7495C69.6666 34.5256 68.7439 26.478 68.7439 26.478V26.478ZM48.168 20.3332C47.2454 20.3332 46.5072 19.5845 46.5072 18.6488C46.5072 17.713 47.2454 16.9644 48.168 16.9644C49.0907 16.9644 49.8289 17.713 49.8289 18.6488C49.8289 19.5845 49.0907 20.3332 48.168 20.3332Z" fill="url(#paint1_radial)"/>
<path d="M0 0H80V80H0V0Z" fill="white" fill-opacity="0.22"/>
<defs>
<linearGradient id="paint0_linear" x1="11.8448" y1="73.0484" x2="50.6889" y2="32.3026" gradientUnits="userSpaceOnUse">
<stop stop-color="#E01D84"/>
<stop offset="0.401" stop-color="#DF1D85"/>
<stop offset="0.77" stop-color="#932C87"/>
<stop offset="1" stop-color="#5D2F88"/>
</linearGradient>
<radialGradient id="paint1_radial" cx="0" cy="0" r="1" gradientUnits="userSpaceOnUse" gradientTransform="translate(53.9673 20.8021) rotate(0.138878) scale(37.394 31.7121)">
<stop stop-color="#E01D84"/>
<stop offset="0.139" stop-color="#DE1E85"/>
<stop offset="0.285" stop-color="#D62085"/>
<stop offset="0.434" stop-color="#C92386"/>
<stop offset="0.586" stop-color="#B72786"/>
<stop offset="0.739" stop-color="#9D2B87"/>
<stop offset="0.891" stop-color="#7C2E88"/>
<stop offset="1" stop-color="#5D2F88"/>
</radialGradient>
</defs>
</svg>
