<svg width="80" height="80" viewBox="0 0 80 80" fill="none" xmlns="http://www.w3.org/2000/svg">
<path d="M40 1C18.4521 1 1 18.7182 1 40.5948C1 59.2026 13.5763 74.6463 30.5437 79C30.3479 78.5046 30.2517 77.8105 30.2517 77.1197V70.3869H25.3758C22.7437 70.3869 20.3042 69.2007 19.2321 67.0205C17.9642 64.6448 17.7683 60.9819 14.5521 58.7039C13.5763 57.912 14.3563 57.1201 15.4283 57.2178C17.4763 57.8109 19.1325 59.1992 20.6925 61.275C22.2525 63.3542 22.9363 63.8495 25.8604 63.8495C27.2246 63.8495 29.3688 63.7518 31.3204 63.4519C32.3925 60.6786 34.2446 58.2052 36.4883 57.019C23.4242 55.4352 17.1842 48.9012 17.1842 39.9916C17.1842 36.1298 18.8404 32.4669 21.5721 29.2993C20.6958 26.2294 19.5242 19.8943 21.9637 17.4209C27.8154 17.4209 31.3237 21.2826 32.2 22.27C35.1242 21.2793 38.3437 20.6862 41.6563 20.6862C45.0683 20.6862 48.1883 21.2793 51.1125 22.27C51.9888 21.2793 55.5004 17.4209 61.3488 17.4209C63.6888 19.7966 62.6167 26.2294 61.6409 29.2993C64.3725 32.3692 65.9325 36.1298 65.9325 39.9916C65.9325 48.9012 59.7888 55.4352 46.8242 56.8202C50.4321 58.7005 52.9679 64.045 52.9679 68.0045V77.0219C52.9679 77.3185 52.8717 77.615 52.8717 77.9116C68.08 72.5671 79 57.9187 79 40.5948C79 18.7182 61.5479 1 40 1Z" fill="black"/>
<path d="M0 0H80V80H0V0Z" fill="white" fill-opacity="0.22"/>
</svg>
